<svg xmlns="http://www.w3.org/2000/svg" width="48.037" height="41.279" viewBox="0 0 48.037 41.279"><defs><style>.a{fill:#749ba5;fill-rule:evenodd;}</style></defs><path class="a" d="M553.9,3758.709a.5.5,0,0,0-.076.075c.059.073.108.158.164.243a.488.488,0,0,0-.035-.074C553.926,3758.868,553.923,3758.784,553.9,3758.709Zm14.718-3.863a8.924,8.924,0,0,0-5.462-5.451c-1.56-4.371-4.857-7.811-9.906-7.811a15.013,15.013,0,0,0-7.875,2.826,7.706,7.706,0,0,0-7.285-3.383,7.38,7.38,0,0,0-6.327,4.739A6.527,6.527,0,0,0,533.9,3753a8.532,8.532,0,0,0-1.383,7.631c1.152,3.451,4.681,5.388,8.573,5.62a10.729,10.729,0,0,0,9.856,6.023,17.375,17.375,0,0,0,3.989-.466,11.294,11.294,0,0,0,7.356-6.213.268.268,0,0,0,.089-.021,9.2,9.2,0,0,0,5.552-4.191,7.855,7.855,0,0,0,.685-6.541Zm-29.685-10.626a3.976,3.976,0,0,1,3.974,3,17.43,17.43,0,0,0-1,1.694l-3,.846a10.588,10.588,0,0,0-2.488,1.048,3.505,3.505,0,0,1-1.315-4.119,4,4,0,0,1,3.826-2.464Zm22.431,18.575c-1.173.328-2.406.455-1.806.455a8.316,8.316,0,0,1-5.638,5.779,13.309,13.309,0,0,1-2.972.074,7.255,7.255,0,0,1-7.151-5.175c-.576-1.715-1.745-.857-2.08-.826a5.238,5.238,0,0,1-1.79-10.32c1.8-.5,4.566-1.27,4.566-1.27s1.967-4.71,5.285-5.906a12.656,12.656,0,0,1,3.474-.847c3.467,0,5.58,2.561,6.648,5.747a8.665,8.665,0,0,1,.263,1.662,5.84,5.84,0,0,1,5.136,3.726A5.482,5.482,0,0,1,561.364,3762.8ZM537.7,3731a1.663,1.663,0,0,1,1.728,1.588v4.233a1.734,1.734,0,0,1-3.456,0v-4.234A1.662,1.662,0,0,1,537.7,3731Zm-14.974,13.76h4.607a1.593,1.593,0,1,1,0,3.175h-4.607a1.593,1.593,0,1,1,0-3.175Zm5.927-9.166,3.259,3a1.506,1.506,0,0,1,.486,1.551,1.663,1.663,0,0,1-1.242,1.141,1.829,1.829,0,0,1-1.687-.447l-3.258-3a1.505,1.505,0,0,1-.486-1.551,1.664,1.664,0,0,1,1.242-1.141,1.829,1.829,0,0,1,1.687.448Zm21.778,1.355-3.34,3.08a1.888,1.888,0,0,1-2.51,0,1.539,1.539,0,0,1,0-2.307l3.341-3.079a1.887,1.887,0,0,1,2.51,0,1.539,1.539,0,0,1,0,2.307ZM529.7,3753.883l-3.34,3.069a1.883,1.883,0,0,1-2.5,0,1.535,1.535,0,0,1,0-2.3l3.34-3.08a1.887,1.887,0,0,1,2.51,0,1.539,1.539,0,0,1,0,2.307Z" transform="translate(-521 -3731)"/></svg>